<svg width="152" height="32" viewBox="0 0 152 32" fill="none" xmlns="http://www.w3.org/2000/svg">
<rect x="1" y="1" width="150" height="30" fill="#FFFEFE" stroke="black" stroke-width="2"/>
<path d="M10.6094 7.9375V25H9.16797V7.9375H10.6094ZM18.5547 15.7891V17.0312H10.1289V15.7891H18.5547ZM19.7383 7.9375V9.17969H10.1289V7.9375H19.7383ZM24.3086 18.8594V18.4727C24.3086 17.5508 24.4414 16.6992 24.707 15.918C24.9727 15.1367 25.3516 14.4609 25.8438 13.8906C26.3438 13.3203 26.9414 12.8789 27.6367 12.5664C28.332 12.2461 29.1055 12.0859 29.957 12.0859C30.8164 12.0859 31.5938 12.2461 32.2891 12.5664C32.9844 12.8789 33.582 13.3203 34.082 13.8906C34.582 14.4609 34.9648 15.1367 35.2305 15.918C35.4961 16.6992 35.6289 17.5508 35.6289 18.4727V18.8594C35.6289 19.7812 35.4961 20.6328 35.2305 21.4141C34.9648 22.1875 34.582 22.8594 34.082 23.4297C33.5898 24 32.9961 24.4453 32.3008 24.7656C31.6055 25.0781 30.832 25.2344 29.9805 25.2344C29.1211 25.2344 28.3438 25.0781 27.6484 24.7656C26.9531 24.4453 26.3555 24 25.8555 23.4297C25.3555 22.8594 24.9727 22.1875 24.707 21.4141C24.4414 20.6328 24.3086 19.7812 24.3086 18.8594ZM25.7031 18.4727V18.8594C25.7031 19.5547 25.7969 20.2148 25.9844 20.8398C26.1719 21.457 26.4453 22.0078 26.8047 22.4922C27.1641 22.9688 27.6094 23.3438 28.1406 23.6172C28.6719 23.8906 29.2852 24.0273 29.9805 24.0273C30.668 24.0273 31.2734 23.8906 31.7969 23.6172C32.3281 23.3438 32.7734 22.9688 33.1328 22.4922C33.4922 22.0078 33.7617 21.457 33.9414 20.8398C34.1289 20.2148 34.2227 19.5547 34.2227 18.8594V18.4727C34.2227 17.7852 34.1289 17.1328 33.9414 16.5156C33.7617 15.8984 33.4883 15.3477 33.1211 14.8633C32.7617 14.3789 32.3164 13.9961 31.7852 13.7148C31.2539 13.4336 30.6445 13.293 29.957 13.293C29.2695 13.293 28.6602 13.4336 28.1289 13.7148C27.6055 13.9961 27.1602 14.3789 26.793 14.8633C26.4336 15.3477 26.1602 15.8984 25.9727 16.5156C25.793 17.1328 25.7031 17.7852 25.7031 18.4727ZM40.7617 18.8594V18.4727C40.7617 17.5508 40.8945 16.6992 41.1602 15.918C41.4258 15.1367 41.8047 14.4609 42.2969 13.8906C42.7969 13.3203 43.3945 12.8789 44.0898 12.5664C44.7852 12.2461 45.5586 12.0859 46.4102 12.0859C47.2695 12.0859 48.0469 12.2461 48.7422 12.5664C49.4375 12.8789 50.0352 13.3203 50.5352 13.8906C51.0352 14.4609 51.418 15.1367 51.6836 15.918C51.9492 16.6992 52.082 17.5508 52.082 18.4727V18.8594C52.082 19.7812 51.9492 20.6328 51.6836 21.4141C51.418 22.1875 51.0352 22.8594 50.5352 23.4297C50.043 24 49.4492 24.4453 48.7539 24.7656C48.0586 25.0781 47.2852 25.2344 46.4336 25.2344C45.5742 25.2344 44.7969 25.0781 44.1016 24.7656C43.4062 24.4453 42.8086 24 42.3086 23.4297C41.8086 22.8594 41.4258 22.1875 41.1602 21.4141C40.8945 20.6328 40.7617 19.7812 40.7617 18.8594ZM42.1562 18.4727V18.8594C42.1562 19.5547 42.25 20.2148 42.4375 20.8398C42.625 21.457 42.8984 22.0078 43.2578 22.4922C43.6172 22.9688 44.0625 23.3438 44.5938 23.6172C45.125 23.8906 45.7383 24.0273 46.4336 24.0273C47.1211 24.0273 47.7266 23.8906 48.25 23.6172C48.7812 23.3438 49.2266 22.9688 49.5859 22.4922C49.9453 22.0078 50.2148 21.457 50.3945 20.8398C50.582 20.2148 50.6758 19.5547 50.6758 18.8594V18.4727C50.6758 17.7852 50.582 17.1328 50.3945 16.5156C50.2148 15.8984 49.9414 15.3477 49.5742 14.8633C49.2148 14.3789 48.7695 13.9961 48.2383 13.7148C47.707 13.4336 47.0977 13.293 46.4102 13.293C45.7227 13.293 45.1133 13.4336 44.582 13.7148C44.0586 13.9961 43.6133 14.3789 43.2461 14.8633C42.8867 15.3477 42.6133 15.8984 42.4258 16.5156C42.2461 17.1328 42.1562 17.7852 42.1562 18.4727ZM62.7812 12.3203V13.4688H56.4297V12.3203H62.7812ZM58.7617 9.0625H60.1562V21.918C60.1562 22.5039 60.2344 22.9453 60.3906 23.2422C60.5469 23.5391 60.75 23.7383 61 23.8398C61.25 23.9414 61.5195 23.9922 61.8086 23.9922C62.0195 23.9922 62.2227 23.9805 62.418 23.957C62.6133 23.9258 62.7891 23.8945 62.9453 23.8633L63.0039 25.0469C62.832 25.1016 62.6094 25.1445 62.3359 25.1758C62.0625 25.2148 61.7891 25.2344 61.5156 25.2344C60.9766 25.2344 60.5 25.1367 60.0859 24.9414C59.6719 24.7383 59.3477 24.3945 59.1133 23.9102C58.8789 23.418 58.7617 22.75 58.7617 21.9062V9.0625ZM74.8516 18.0508H69.9883V16.8203H74.8516C75.8672 16.8203 76.6914 16.6562 77.3242 16.3281C77.9648 15.9922 78.4297 15.5391 78.7188 14.9688C79.0156 14.3984 79.1641 13.7578 79.1641 13.0469C79.1641 12.3516 79.0156 11.7109 78.7188 11.125C78.4297 10.5391 77.9648 10.0703 77.3242 9.71875C76.6914 9.35938 75.8672 9.17969 74.8516 9.17969H70.4922V25H69.0508V7.9375H74.8516C76.1016 7.9375 77.1523 8.15234 78.0039 8.58203C78.8633 9.01172 79.5117 9.60938 79.9492 10.375C80.3867 11.1406 80.6055 12.0234 80.6055 13.0234C80.6055 14.0703 80.3867 14.9727 79.9492 15.7305C79.5117 16.4805 78.8672 17.0547 78.0156 17.4531C77.1641 17.8516 76.1094 18.0508 74.8516 18.0508ZM87.9062 14.418V25H86.5117V12.3203H87.8711L87.9062 14.418ZM92.3945 12.2266L92.3594 13.5156C92.2031 13.4922 92.0508 13.4727 91.9023 13.457C91.7539 13.4414 91.5938 13.4336 91.4219 13.4336C90.8125 13.4336 90.2773 13.5469 89.8164 13.7734C89.3633 13.9922 88.9805 14.3008 88.668 14.6992C88.3555 15.0898 88.1172 15.5508 87.9531 16.082C87.7891 16.6055 87.6953 17.168 87.6719 17.7695L87.1562 17.9688C87.1562 17.1406 87.2422 16.3711 87.4141 15.6602C87.5859 14.9492 87.8477 14.3281 88.1992 13.7969C88.5586 13.2578 89.0078 12.8398 89.5469 12.543C90.0938 12.2383 90.7344 12.0859 91.4688 12.0859C91.6484 12.0859 91.8242 12.1016 91.9961 12.1328C92.1758 12.1562 92.3086 12.1875 92.3945 12.2266ZM99.1562 12.3203V25H97.7617V12.3203H99.1562ZM97.5156 8.65234C97.5156 8.38672 97.5977 8.16406 97.7617 7.98438C97.9336 7.79688 98.168 7.70312 98.4648 7.70312C98.7617 7.70312 98.9961 7.79688 99.168 7.98438C99.3477 8.16406 99.4375 8.38672 99.4375 8.65234C99.4375 8.91016 99.3477 9.13281 99.168 9.32031C98.9961 9.5 98.7617 9.58984 98.4648 9.58984C98.168 9.58984 97.9336 9.5 97.7617 9.32031C97.5977 9.13281 97.5156 8.91016 97.5156 8.65234ZM107.383 15.0273V25H105.988V12.3203H107.324L107.383 15.0273ZM107.066 17.875L106.445 17.5234C106.492 16.7734 106.645 16.0703 106.902 15.4141C107.16 14.7578 107.508 14.1797 107.945 13.6797C108.391 13.1797 108.91 12.7891 109.504 12.5078C110.105 12.2266 110.77 12.0859 111.496 12.0859C112.129 12.0859 112.695 12.1719 113.195 12.3438C113.695 12.5156 114.121 12.7891 114.473 13.1641C114.824 13.5391 115.09 14.0195 115.27 14.6055C115.457 15.1914 115.551 15.9062 115.551 16.75V25H114.145V16.7383C114.145 15.8633 114.023 15.1797 113.781 14.6875C113.539 14.1875 113.195 13.832 112.75 13.6211C112.305 13.4102 111.777 13.3047 111.168 13.3047C110.496 13.3047 109.906 13.4531 109.398 13.75C108.898 14.0391 108.477 14.418 108.133 14.8867C107.797 15.3477 107.539 15.8438 107.359 16.375C107.18 16.8984 107.082 17.3984 107.066 17.875ZM126.977 12.3203V13.4688H120.625V12.3203H126.977ZM122.957 9.0625H124.352V21.918C124.352 22.5039 124.43 22.9453 124.586 23.2422C124.742 23.5391 124.945 23.7383 125.195 23.8398C125.445 23.9414 125.715 23.9922 126.004 23.9922C126.215 23.9922 126.418 23.9805 126.613 23.957C126.809 23.9258 126.984 23.8945 127.141 23.8633L127.199 25.0469C127.027 25.1016 126.805 25.1445 126.531 25.1758C126.258 25.2148 125.984 25.2344 125.711 25.2344C125.172 25.2344 124.695 25.1367 124.281 24.9414C123.867 24.7383 123.543 24.3945 123.309 23.9102C123.074 23.418 122.957 22.75 122.957 21.9062V9.0625ZM140.512 21.7656C140.512 21.4219 140.426 21.082 140.254 20.7461C140.082 20.4102 139.75 20.1016 139.258 19.8203C138.773 19.5391 138.059 19.3008 137.113 19.1055C136.41 18.9492 135.781 18.7734 135.227 18.5781C134.68 18.3828 134.219 18.1484 133.844 17.875C133.469 17.6016 133.184 17.2734 132.988 16.8906C132.793 16.5078 132.695 16.0547 132.695 15.5312C132.695 15.0625 132.797 14.6211 133 14.207C133.211 13.7852 133.508 13.418 133.891 13.1055C134.281 12.7852 134.75 12.5352 135.297 12.3555C135.852 12.1758 136.473 12.0859 137.16 12.0859C138.137 12.0859 138.973 12.2539 139.668 12.5898C140.371 12.918 140.906 13.3672 141.273 13.9375C141.648 14.5078 141.836 15.1523 141.836 15.8711H140.441C140.441 15.4336 140.312 15.0195 140.055 14.6289C139.805 14.2383 139.434 13.918 138.941 13.668C138.457 13.418 137.863 13.293 137.16 13.293C136.434 13.293 135.844 13.4023 135.391 13.6211C134.938 13.8398 134.605 14.1172 134.395 14.4531C134.191 14.7891 134.09 15.1367 134.09 15.4961C134.09 15.7773 134.133 16.0352 134.219 16.2695C134.312 16.4961 134.477 16.707 134.711 16.9023C134.953 17.0977 135.297 17.2812 135.742 17.4531C136.188 17.625 136.766 17.793 137.477 17.957C138.5 18.1836 139.336 18.4609 139.984 18.7891C140.641 19.1094 141.125 19.5078 141.438 19.9844C141.75 20.4531 141.906 21.0234 141.906 21.6953C141.906 22.2188 141.797 22.6992 141.578 23.1367C141.359 23.5664 141.043 23.9375 140.629 24.25C140.223 24.5625 139.73 24.8047 139.152 24.9766C138.582 25.1484 137.941 25.2344 137.23 25.2344C136.16 25.2344 135.254 25.0586 134.512 24.707C133.777 24.3477 133.219 23.8789 132.836 23.3008C132.461 22.7148 132.273 22.0938 132.273 21.4375H133.668C133.715 22.0938 133.922 22.6133 134.289 22.9961C134.656 23.3711 135.105 23.6367 135.637 23.793C136.176 23.9492 136.707 24.0273 137.23 24.0273C137.949 24.0273 138.551 23.9219 139.035 23.7109C139.52 23.5 139.887 23.2227 140.137 22.8789C140.387 22.5352 140.512 22.1641 140.512 21.7656Z" fill="black"/>
</svg>
